<mxfile host="app.diagrams.net" modified="2022-05-29T06:35:53.996Z" agent="5.0 (Macintosh; Intel Mac OS X 10_15_6) AppleWebKit/605.1.15 (KHTML, like Gecko) Version/15.4 Safari/605.1.15" etag="dMgbNvY5bN6zkh53IpwY" version="18.1.1" type="github">
  <diagram id="ND3JI3yM224ZTxa6fe7e" name="Page-1">
    <mxGraphModel dx="614" dy="550" grid="1" gridSize="10" guides="1" tooltips="1" connect="1" arrows="1" fold="1" page="1" pageScale="1" pageWidth="827" pageHeight="1169" math="0" shadow="0">
      <root>
        <mxCell id="0" />
        <mxCell id="1" parent="0" />
        <mxCell id="LZkzQo7tHymJ1fhLrl71-2" value="" style="shape=stencil(lVfZbhsxDPyafSVEUudzmv5HgDi1UdcOHPf6+9I1tFnR3gny5mw4Eo/hkJr04W379LqZJLydT8fvm9+75/N20i+TyO6w3Zx2Z/s16eOkDy/H0+bb6fjz8Hz9+/XpYnn59eP463LCnyuuJgr1gpLw9/qlUeX/H75e7fe7w8K+KFUZ7CtlXbdPmRIP9hyo1nVAjJTDCIgQoIk0DwBh4rQOMI/LGIIGYnCDWAw6AhJMkkRqo0tRiEGWDBDHoGOlJhCQygCwRCu6IZGMMWSlUmDQMsZQApUGAKUncQYUEnRD6Q7MVBJqqA6VouOelRJVOnaPZ3IXUpRW6efNgNprfxfA7eaGRhEBLK3iAajSLP28JSCvAyrV4O1TBB3qu8FCLgH0m29oyylKkXhqt0wM/BdKzj52D1f8cYLUlBTQzgrgzhcSQKJ24z9TBCxlvVFUhs1vlKjFA5BHEkiTB1REayUuPuaCOs2mQvRFCFhefOMkioB1t3rU5jSsxZCcSxXzyObMKGDWCAxu4EIxeQCSeat0HpufQ6AAeqf5uWA3FJDWTPnGPoBCx060RW82xCTK0RcBTXPpM2ZRZQYzQTuPF71ZobZ8zj75/FTLD4jXSDfGW7WrwYp9GPvGRloBjIhe3AvjqUx1jDfPJ9xnnB+ANvUzsA/eH1srKujKmb2zPeNp1kVhXoxsL4FazWO8tgM0kE+Lbsy/4D2K2W9qJq5oeHD1yshYSm3zcwM/9nm4tv+6kgWKQISqaXt09lBRmMrYAsY40JGm4yrOHsVrguBk1+Y5UF0TZRnzo/3DffvW0/GeTzT7Fgo798BHF7gxkPv0XLMPbu+F64QpbB4pZxkAo9UUM/sHVwAtedlm3P5BCcUbvD94v6ylK8LCHpz/2Qfjx/b24/11+rLb76+P2+X//WvWPl1fwvr4Dw==);lineShape=1;" parent="1" vertex="1">
          <mxGeometry x="120.18318600127407" y="181.1845765931795" width="19.019337921838883" height="50.233498965128206" as="geometry" />
        </mxCell>
        <mxCell id="LZkzQo7tHymJ1fhLrl71-3" value="" style="shape=stencil(lVfLctswDPwaXTHgAyR4TtP/yEyc2lPXzjhOH39fuC7VgJbW05ssYykAiwXAKT28bZ9eN1Pkt/Pp+HXzY/d83k7p0xTj7rDdnHZne5rS45QeXo6nzZfT8f3wfP39+nSxvDx9O36/nPDzissk7QKK/OvvC6Uc/7z5fLXf7w4f7EOilBwgVcq6DoiBOHoAEzMANOLiAFEol3WAOZD8F2LsUS0CciEWDwj9iEWAZCrsAKFRAzGUSOpjCJYl4FJlqsEDjJkAAI1UPSBQk3VAY4qDS93HZXvLoU8Spq3lm5ApggBaoebthRLyR6l4lkPslbUMaFSqZ5khB4HnCGeEZRkg7BPiSUiNIvLJxOWTmisJAhSqXm6SqCHAjaClUs2Q5+jTJNqjWisk9qUqBTKnSjzEYHIDpaGFxJdGTr1YlgHSQ5x5EOIKAeWmx6CgzaWh7YUCi0nrWH3amVy2b6PcEgVEW6Dqzzd9I9YyBR7sM8iQFV7iwZ+C7JWCl2frJK5JJ/k6DXeUYB13kLNpAwN0iKBQQCnS3tPnssvUAGfNBo/nTGKfLMsAGavIpFORSwbI/wNQ7g2rA4qNUwCoNjW8mu2NghhKIh0AmTLIkggFH3QtfditjefsxVkrNaCFpCMPVWFp2AYyyN/yVkCWrDbZN3prakg+2hvcrAaFbXtmdVYD43Erfc7MH5gbyHLIY4e04kU7UqQ8BJApgvPDuINZQ0MkM4kvCrXzQRXxSIBRjPrjzSi/lDXIJ4/trgjsX9yXrVmYFi9aLnonme1tXwLxWvcfpjLDEXizod7Z4+/v/fbw79Lwstvvr3eOj/+Plwx7db2gpMff);lineShape=1;" parent="1" vertex="1">
          <mxGeometry x="103.8788852954583" y="210.05772415384945" width="32.863782358370486" height="8.066127547252563" as="geometry" />
        </mxCell>
        <mxCell id="LZkzQo7tHymJ1fhLrl71-4" value="" style="shape=stencil(lVfZctpAEPwaXqf2Pp4d5z9cZRyoEOPC5Pr7tKIImJHUxG9CbGvn6O6d3cSH993T23YT3Pv5dPy6/bl/Pu828dMmhP3rbnvan/G0iY+b+PByPG2/nI7fX5/H329Pw8rh6dvxx/CFXyOuJ6l+QAX3e3yTpfW/Lz6P6w/715v1zUmMan2TkNbXFy/NqfU+SmjrgBwlJQ0oEt06IGVJWQO6dL8OiFWKBoQkPhOAF6dzDl0cKRJqGHTSMUkPBOBsF5KXWNcBvkrtGtAkkj6giEWHlLMU0gcAalGAEiUzQJOqy1r9xJXlpIMknUNtUyuXAVVc0NwDWVmno21cD+JJSMlJqhpQKL3Rpn9kvgDqtOf/A1rhIek+9DbxdznpNlHtAugSWZXKVMQbQCWdBpmjUZxz4ohGoaD5Fp21ultRA8CyBjfybAdPsg7FahR1jVzUxjbQOSYIALphX5kksspvZwGsrPBeo9EOM+R9cN4CHFdQNmRK0ogxgUxWcnd2aDNB8BwgCLsDrxIk52dlrUxyF++97TShBkJqpkqN96FLNiFxtuLMysUCqAtk8d0COkk6Bkvvu6J2MwVx3wBd3Swm5kzQqM2ae9+HARgVLJkujF8G4EjROzROJtBbK652CSSiJEEHVD0947z1YhzTlRxAznoM5oBMvu9sPAnjE7NJOx9CHGy4wnCnpXM9tJfzxQmu50N8gk0NaHHRHUNOhc0lTbJOwd8ZM9BjnYP3dAfMamE2RLOZGDLRHnkZMBfXD5QxNZJMTBsUNt93VJcNFUpmvSPf7zN/5M4CDRqjcNQd+2zedtR+hxktm/WNTHkwETNceEnEJGBr5tQM9L5w47RXQOMbmNEi0gYPPqsDgs2QgJCwKSjuL6xAZeL7laCJEPqjt8776/FwveK+7A+H8YZ8+7+9EuPVeJ2Oj38A);lineShape=1;" parent="1" vertex="1">
          <mxGeometry x="154.54008298765416" y="178.06451966109205" width="20.38817635239525" height="62.39908758542879" as="geometry" />
        </mxCell>
        <mxCell id="LZkzQo7tHymJ1fhLrl71-6" value="" style="shape=stencil(lVfLctswDPwaXzF8AQTPafofmYlTe+rGGcd9/X3hqrRMSN5ObrKMFQnsYkFu8sP77ultu0nh/Xw6ft3+3D+fd5v8aZPS/nW3Pe3P9rTJj5v88HI8bb+cjt9fn6ffb0+XyMvTt+OPyxd+TbiWSdsFlcLv6U0l1r8vPk/xh/3rTXwVanWIj4EaAHCjMC4QKwW+DyhMJQ2AVKiW+4DcKPIIaKQVADJVHQCZSfN9QNL+vQ4oCa6QhDgOAA5U0ApCOibNSiIgh0BxzEFwWS1px0OtFHFZdSyrVspgBS7EYQA0oxJUiZnEAYQy0hJTHcvabEugSrYlLSNAKQcAsCrJCDB1IUAgrh4gIIdSSbIHoAYqVtayAICkS1xZQYD4jOkUPSAggHlE8mX994l1gPQOviEuIXlLT/FGGqkBgHoTMPEhLRVroLEfWiFBvmQtLx4QEQ/srdXMFhKn1NivEEDSHKlmD2DAg8m7FV+lhORtRSyeh4B72nmrMR2AzRgguRyUAm5RryXtTnWvSmXR06hKxoMsOw4B2JtADAEmYWLixZ4qmlltwVzDHVS7q9yUicGWPgxIgdLoAqpd8auAaESMfl8x1eJtRhR2nBnfSANfO2o1/srRday3rt573x85MKtFI1S8J9kQzqhAqc+a60lGoFJj6wP2CgjQxJJ6q4/W4Uh31RuxsZiQr7ae4nygRKcGWUxc86h0P15DN6webxmDEmnu9jPHR8CBGmnRxSONavP+FeA5rCXfNYEymLXm6M3Ho7Oq2W10hPUuWo+3nh3zTfBINfvUzFdGEg3LLoOTvC00bRMCKPRy9BgJkH40Xo+XXu85Hk3lj96Q/h9vD/N17GV/OEy3udv//fXNXk1Xv/z4Bw==);lineShape=1;" parent="1" vertex="1">
          <mxGeometry x="225.41211117013484" y="178.98149386706893" width="15.609423507967563" height="49.27683403353183" as="geometry" />
        </mxCell>
        <mxCell id="LZkzQo7tHymJ1fhLrl71-7" value="" style="shape=stencil(lVfLctswDPwaXTEkwRfOafofmYlTa+raGcdpm78PVA1lEba2k5ss7RLEYwF44Ie3/dPrbgju7XI+/dz9GZ8v+4G/DSGMx/3uPF70aeDHgR9eTufdj/Pp/fg8/359mpDT06/T7+mEvzMvkKsTKbiP+UWtFOTfm+8z/jAeV3jP5FJHKIVy2iaohSQdIVfycZvAnsR3hFSpAgvRU+GOECsV4EMKxL0F1isBQmaqpSOETLFsE0oidh3BR2LgQ03Wh0C5ArwGvXfBk88ALyS5wzsKvI0XzVoweOcBPpGLBp8cwBcK0dw/g4CKlkBfRUwMMiZCtY9nogjiqXgxZU0F+Sv2/tJKZMvf0uvMe2wgtc8LYVHefQJTyJZQEMFRlhsCqImpM6SbK4Ek10zBW6czshBtlIQKiKrifW9gkcUWPvQ6Vp2i85PNMjddbzksvWrUX4SX1gmvqolAxaLHWRWjBIj6a1Uc0PmZkslwO2BLlbGPf4D5UtXkvi1GWKLeLf4tw4MEG0h9gDTCuK2waUMeDqcvE7RR1z4FAeu4ZNt5OUHR5GSLKKpNoIIUrfB1wKJmGqMtCx3hqFtzbFlaLQko0eHGB42bA/1ax6k3iVYLQAp+macLobbMbNSenQjX6r1fGnYCrqr3fqbJiTUgaG1pO8oKn1AWWi9ZeYzUGdqEX4U0g9J2dk/T9oF2CmebkbYnfL7Rvi4lAorI2fGk7RJ1u5sEaztGO9dXV+X/4/Xhupe/jIfDvNavv9s9Xl/N/wH48RM=);lineShape=1;" parent="1" vertex="1">
          <mxGeometry x="250.14047058120104" y="199.47454833338622" width="22.910897283830195" height="26.372866443708745" as="geometry" />
        </mxCell>
        <mxCell id="LZkzQo7tHymJ1fhLrl71-10" value="" style="shape=stencil(rVfZbhsxDPwavxKSSF3PafofAeLURt04cNzr78vtVmuL2p2iQN/24IgUOaRGO354Pzy97XfBvV8v58/778fn62HHH3YhHF8P+8vxqk87ftzxw8v5sv90OX99fZ7f354my+npy/nbtMKPGSeVOE6o4H7OXzxx+v3h42x/Or7e2cdKgTv7SJ637bOnVPr1HUnZBhQm53tAJokAkCn1AN1CBh6qJ8k9IJHLACCU+xyxaz7XAdkmlSMx8qBZ7fcgjli2Ad45cq5HRJIKXfz5vRTOUcabmP7dAyIVEFNl4p4aCXsohWq/h6RkAmkqwRYiVUpg03khZwNkIR+2AUmZ0NM1FxLUD4mydAANMgEPUmwDlQT5zbVlvQGqowDqEIRcX+laGlnWAdoQfR2ULA7sQTuysAWgSnu2Wboj8DqZKGbroQBqRMrJ2jPYgjLJ2RwJ2MHC5MVe2wNUbWjPGqmCoulA6ZmtQyeBuRoomhoz5qkdklVXQM08UMJTBUNVKxyTBRTMoZRsRB6zNAwANOenPnA2RxAQKfbNr0VzgBQKsH2Q2gzcCsn0Qc3wJNE6i6lbwZ1Wh+bXVkJ1GEakAipgtp7fVQYAoF5qf+8jAtTjgaqljf31gOxArQu1tlrTZEiLBmih03ZkBVhfeW/i50aT/2NfhiMntmm5TqJMvt9xUYUEAKpWzHTMGXJCpB1hC4CponEdrFbIDh79cdQKqY2oddbpOdufILpEAh404mSUrYMjVaWE6wWSSrAKQlIPoS+ceKjyVDxLD+AEJ5jmxPchhUIMQhrl/HTSAQ+ak9Sn1QtUhSpksznJqQDJxt4qMCzOR6WgUhtN1GI3IFB+qb2tQTvptuwNUQOknV4lDIt0HiA5qK3Lxh5dwFgbsbd3MH5lWHTG3gNCqDw14xELOwmWomqP+CMtHTf7APgjuRH+Zp/R+v94Af67vT7cbtsvx9Npvqzf/7e3c/003+z58Rc=);lineShape=1;" parent="1" vertex="1">
          <mxGeometry x="284.5717436983123" y="177.83050262462666" width="18.471283646572488" height="58.429176670584866" as="geometry" />
        </mxCell>
        <mxCell id="LZkzQo7tHymJ1fhLrl71-13" value="" style="shape=stencil(lVfLctswDPwaXTEkSIDkOU3/IzNxak9dO+O4r78vVFuOCUmbyU2WsSIeiwU4pIe37dPrZuDwdj4dv29+757P2yF9GZh3h+3mtDvb05Aeh/Twcjxtvp2OPw/Pl9+vT6Pl+PTj+Gv8wp8LrjZqeURx+Ht9Q1L+v/h6sd/vDnf2RUlLZ98oAnuNpK2zj0ytrgOyEEsH4ECF1wGpUOYeIFQFAAJxH0KK1No6gDNV7QGNAoiBmVLsAFlh0Jyo9i6JUAJptaynHqCZOIKgxZ9QMgVwgnlc+zrUPJVyudKZWl+HJhSAS6oU1AOuZFwDuKCbpVUBwILuyd0KNcTWTNIXrlXIJWUSF3QjSQAQKDQPaIDeYvTWGQDUQawO0QNQAwlTmQEiSKvEWQyVEsiSWMexr0MC/WCA6E5QfIK5FDyX4Ak8ydwNYLVHJ2QqqQckSD4rHKsHKHKpUW0egApn5EviYwi4Ra85uQMU1HFCZdaiilyyMjmAfgSIjnyFFLsUXB1sYoG0aiJ2ImDiiVu0JQ+oqIGM/f0JMYSJj8sImZGpQZ2RRGkmG5DfcWLzXZpQXkeAfgZgQzP0TV3LVPxFQKy+R8ttAiwDTAV6gLGFQVrZZ1WMXSCE4B2yoQfnupexZOQGE84C7nlhb5CwRp3+vtt9KtpMjEd9BPEmU2trgB8OVNA2Vvx8M1lF7Rwo9zzlKQfL62Sm3KcowO/XGYdwo7VAqt4e5McU15UY+2NyKMnZV/R9m+b92LG2A/mxHmzB5TMDxo2j3u22k3CstNi8ByijAGy96QsslIFwternrOIAbovyTSQm+V62z/7+UiaGL9vzlO/3+w4Src/ejz62t4f3y9jLbr+/3OXu//eXN3t1ufilx38=);lineShape=1;" parent="1" vertex="1">
          <mxGeometry x="416.7883011212982" y="176.99624660121947" width="18.222150200186434" height="46.75331605116662" as="geometry" />
        </mxCell>
        <mxCell id="LZkzQo7tHymJ1fhLrl71-14" value="" style="shape=stencil(lVjbcttACP0avzIL7PU5Tf8jM3EaT9M44zi9/H1RPetokXSSvsmSjoEDB1jt9Ob18e5lv5Pwej4dv+9/He7Pjzv9shM5PD/uT4ezXe30dqc3D8fT/tvp+PZ8f/n9cje9OV39OP6c/uH3BVcbaZlQEv5c7rCSpH93vl4AT4fnOUBJdQA0CnX7/ZIoOQNMQbcBOVILI6BS421AujrQAZJICgAocRoAqp2FVUAsVPMAiEIZuBS1P+6AJBQRIHhWs5CCNGilMMZQGLKkmdJIaw1UECARxxFQqAGWjMTkKkMp5m2AROIRwCFQCNsINlLGVLcMAepryWKobfv9q/krq4UKCME4H/0p0mNaVwNFl+ZCAvxhq+TRQFYYgEVcxrrITAno07KWx5BNTxFUXkxUXW2X/hfrcjMKnYUMSc3B17YBagQA6S1r5lJEgEhhFHSqFAGteZEHYwnlwQCl+TxEoB4DJJc4pYAsREpjDNMdZEGojYKenMR5cG0vWxMRkOnqO4ABCojB8iphYQHoJ1nL4EUMqNdb362eJVitvADYuEBBM4ksFIctlBFgtQQHnCVupHUiGgEiFQcosBNbHppzyRQHmoB57PXwgabZl7e5xKi8tYc4C5oBrdPekDyt+oFEXS2FTvRnAdI1uOnSQqIMEjcFvZBoREEbra7NZFJUrcYJewBK3ASQ/wHE1j2ezTikOK0+07n1ibE141wTKNpFuzVFwxhDaXAocvOarrlvHususXepCdS07T7C3kJBFrLfci2Gilgqfk6XAJuxLfLN1ZINALTwSX98VVyAW+60g44WtME2E9nve+YkqiXb1GXsfLbSCaDVzgKut9qOiSaQKU7dnO6aXX+/+TVaoEO2cKYxZLwSW525ESo97+vv175wXssCHjSa+T/6U/uNrffL2PMaHJ+zlf/9FAB3aLNQR4/sRMmgIxkgjkpgvKUbR+74ZodimITiFx8DoMOVHVtkrAqOveWsA6JXswHQlmFnL9e3JwAo1MZezQZQBAh9GZwFjXbi9W8NwMInPk7YxfunjYfD09Ply8j8uf8UYrcun1H09i8=);lineShape=1;" parent="1" vertex="1">
          <mxGeometry x="443.74725018879144" y="176.34033630391423" width="31.176878335899346" height="45.23953641384469" as="geometry" />
        </mxCell>
        <mxCell id="LZkzQo7tHymJ1fhLrl71-15" value="" style="shape=stencil(fZbdcgIhDIWfZm8zQAg/17Z9j85U606tdqz9e/tmZ0c0uJ47xP0I5JwEBl59bp8/1kNwn6fj4W39M76ctgM/DCGM++36OJ50NPDjwKvN4bh+PR6+9i/z74/n6ctp9H74nlb4nbmSKZeJCu5vngmZ6jzzNAO7cX8FVKEsBuBKrgKg9oAE8gkCbLeUhEoEQKSUDZDLeWYRKIl8MEDRmHwfyBrBG6Amyu4+kDxxMoB3jhwgYu7TVAsVkFcWCs4CTBEoF4RctKeOxHIf8IXYpikHikAIf+MNUW94AGSSaoAoFIE3AlOyeWU+p2E5S9yfQZcQILVuQOwZdJNoS9Ls3wA5u2XZTIHECqeJ9kDpSaauRiNVcAY1QhdBzeLBli5WazpkSsBLV25uRaqWRyFawTQzRRIQYirJzq5atkBqLfouwqUxLBepthWb10vrWZY6UOAeyKCCtDV625mm9gmUC4Wc3VLJMMIE1BsA2FW9JraVlQB7n3c9oMKhCLEvIM1zBPZ25/umNQ1tVEC2G+fFCC8g398O2hNQuQlVu752DBfA+q0ptnqO5JFmeuIuo9DY7KjY71UxdJV4EntifPWorW++R/dC4t7V3DlIB5cHx2bc7eb3yvX//QNFp+bHDT/+Aw==);lineShape=1;" parent="1" vertex="1">
          <mxGeometry x="482.86796084247567" y="212.87531245851915" width="4.672539772115442" height="4.665236216357698" as="geometry" />
        </mxCell>
        <mxCell id="LZkzQo7tHymJ1fhLrl71-16" value="" style="shape=stencil(7VnLUtwwEPyavU5JGj3PhPwHVUDYCmEpIK+/T7s2MtbYbsIxVdwWo7ZnpO6eGfugF893V483h+CeX55OX29+Hq9f7g766RDC8eHu5un4gl8HvTzoxe3p6ebL0+n7w/X578eraeX069vpx3SHX2dcc1LzhAru9/mKd+LOVz6fAffHhwWgRol1ADQJdX99SdLUrM9lf33OUv0YkJdEAKmKM4Ak6gkgiMYBEJwERwBR/JhySFIjySFIcSMgS2Kb5MUbQJSaCKBK9DaHRpLGsXmzSwipEUBZAXhItUoOFuAIANTTNAJUEtnWFsQ3C1D2BAQQV08gJ92SlNUTGlFDK5ZLSLoEAsAujScNthaWdJNoQsrSWNJNWhkBlSrUOyjexASNsqxbp87MPt9vsZd1GY86BAlK9zUZjSpNomUJI101iCO2AW6k0fi0dNVuA1Tc6AIxdtVuA3zfxA5Ivt9iW0HNejG8LZNdgkbL6K1wT2Z9Fc44cqNAEEzUOKbxHKrr/r9tTMXad4Whk3OA9YWRGpB5JCFl7a4yA+BkRHJJu/fOgCqN5BC1G91rTXSU3xoljN4HiVQCAJuNSKeYCAA+ZLwPEmEhxc6ceX3qZNmOqJ/SYj1TqJdoMo7Ui0EbEw8yIh6z8iTIqRJqO1uj2/zEnfXNELuJJ/EH6y+od57cX62WIdZI8sXpeLs+EFYXa1/T/VnhWQm50uqMNjAlu0EU4EWzPQFllPa2FE6OyQqVX6lM38ohGFLH7jbbdmcPDSJgJC2dAkuRsU5y5XVzw7FDIiuaJJE0C34Vf6Q76myf2pT2qc6WQHh1IObuVlaNcYPe37SQ4Fwi++9767QgNdufuYdYiCaT9cnmO4mS1abeLC7WMwm8d/3UKyabMOvUNhjnKKNRyfJKxZX4XAQDTGFCl0M4HZvtEN5wakxTak4h9yvbgGJrAdqYTEIqzrb9aGPYtqJrMkMw2hg2upRZt3OnFnlIc5M/94KF1mNMhG7MARvNOgoA2ig2HCVNutlJXhN1l4qKMAKmKkRCwpCaV1OtY/3sx5D6F/AxpP4PQ+qqnqBNZ04GflfzXqjRAg2jM00YxmB2crnZF0mau8y3S2Lq5FzMzazxjCvJKX97Bhsy4xdyYMOU1t5UzLtU6Qip1fYBYB8rQXGehRZvST1JOrn+znL2e2qVqHEmBU8lXaIdF/iAiopZqlnP2oBpODM+KZ4ZQJRkNkgie/uy8rDQXXDv9U41pUQqc7Bixa9d3Hvad+P9I6Uc1pvCA06Tco54qqn/3QD31hvCFb5+fu8ztzy0a5vmmjGexmuO2vNqfX7eq4K25DhOoPd+h/gHAH68fva4Pd7fn7+aLP9vP5Pg0vkTi17+AQ==);lineShape=1;" parent="1" vertex="1">
          <mxGeometry x="494.7253649203776" y="189.26331478602208" width="36.17187540353166" height="48.85723992923556" as="geometry" />
        </mxCell>
        <mxCell id="LZkzQo7tHymJ1fhLrl71-17" value="" style="shape=stencil(lVfLctswDPwaXTEkQRLkOU3/IzNxak/dOOM4ffx9obqUTVDaTm+yjJUA7mIBTfzwvn96203BvV/Op6+7H4fny37iT1MIh9f97ny46NXEjxM/vJzOuy/n08fr8/X329McOV99O32fn/DziguVfJxRwf36e4c4/Lnx+Rp/PLzexXMhV7t4IS/b8YkpcRfvI0neBuRK4vuEIjneBohQNoBKqWwDSqTal8CJBACqtzXEQAnUUDPF0AMqMaihKgulA6RMLm4DvHPkXIfIARJRhUpPdC4ty3VAINcXIZESyKkEqn0RxVEAAPEUcw9IFJCYKsW+6FIb+auAyE0JDVAjsdsGhERZekChAlIKnkKfknKZK2AuN5qWhrhxuY7w5L19hYCcspWrxjvAtPJm4lUrQK1uOKMMPWOQqpKQQfs4q6PKMH8luRfq3LDg+ULcd0J1FBMgQDshWdkJ4lg9cQCgipUCS7EeGpKdOswAqMDD1BOzISFQADWwH06JYSfw0M01Qb/QlKp5g7RhtFW0BRRKqJtD8/W7ToigBiWuDIAKiFNpSB4AICWhKjYezls7q7RkZJFqRyafTAVo27Uxc0dagL0ch95M4Plh6M0AezlR7TtHdY28Lg2ScHCW6wFJf6AltxTXCUjNGxaAbkhAEmkxt2Vu6pGCIZXVPfuUssAzyosElm1BLQ2QoG/wPQvJwyGV9ZTMxpPaWrZetLZ670esSxjgLRaS/liZG/XrAN90tqx5OplR84sdgypej21ezGT20FNj08FtFUaLKtsxmFpvb3RO7JUdmzdthJu1mdsBbyRj2iBQBk/Xtchs8SRAocXqzbUVY3PDcSaekclFu1+7NqE3bV1sPJLO4KIOmuKshGLiUbfMQsnmONEq/r8faf+O14vbF+HL4Xi8flDe/2+/IPXW9euTH38D);lineShape=1;" parent="1" vertex="1">
          <mxGeometry x="543.5038571499938" y="173.87134105355517" width="14.900644539199902" height="45.501107172733896" as="geometry" />
        </mxCell>
        <mxCell id="LZkzQo7tHymJ1fhLrl71-18" value="" style="shape=stencil(lVfLctswDPwaXTEkQRLgOU3/IzNxak/dOOM4ffx9obqyRchaT26yhDXB3QVADvzwvn162wwpvJ+Oh++bX7vn03bgL0NKu9ft5rg72dPAjwM/vByOm2/Hw8fr8/n329MYOT79OPwc/+H3GaeRShpRKfz5/4ZK/ffi6zl+v3udxddKMXTxMZDkdUBuJKUHFCqyDuBKIh0gJdKwDkiNUg/gRNwAQKn1e2AhTSClQLXfQ2a4ac6kPaAEYgYsReJ+D0WoApaMVu11q0arrgNKmzKeAMIU4jpAIuXWO8NoACtoptavoEoReKkJSb+HxqQgpdYocw+wNQGtMQQKvdSt4pyaF8KyzMB99rnGHmAVhADZu29cswDAokQNoMAbam7uhZjxsCZdWiwhoCKsbYTqAQHwKkq1eZoiSEmEuN+EKYe0NkB0yhXoV0spupQyZWRwq2GnHFMGyilTciwlEqSD9b7mAYwqIvgiHQFAOMu4LQACaL2yPt806K6ma1NPawHN0pzj+oYJJ6ggzJuu5ATa21LiRY3CLlBIHUsNuvWq67yAwKbVyqVn6W6NlmmozdsAcl+ikD0AeUOWvU+hv0eAfgZgM0rdCmnqPLenVqDWK2etKgPlbJLX3q5SqQB/p+pPD1VhjcbqR0oNMCXxg7ekaYzdzoiSO2xkaKXFiDMO0BHuMsUv8QHWZ6baz4bEU8HeJih6RqNVG2hi0XzcaxbtaAJsZCc+N0IVnt9y8o07Tz3qtuuqL84ET292VHISB0qgRUqejjnX+IAKU3zTvtMqos/f8kHNyARNLh5O/zrRcRGMMoo3/T2fiB9rjtzPTb4Xr15fdKKy+NznU+7ln13Jwwo2ftx9QWDjtZ7m5pNC/3/20nY/3h6uN8SX3X5/vmDOv/sbpb0630b58S8=);lineShape=1;" parent="1" vertex="1">
          <mxGeometry x="571.5991445188217" y="173.88009176601815" width="16.182030550007312" height="47.86922550616089" as="geometry" />
        </mxCell>
        <mxCell id="LZkzQo7tHymJ1fhLrl71-23" value="" style="shape=stencil(lVfLbhsxDPwaXwlJlCjpnKb/ESBObdSNA8d9/X25NeSY1HqK3tZrjlbDIYfShh/ed09v200K7+fT8ev25/75vNvwp01K+9fd9rQ/69OGHzf88HI8bb+cjt9fny+/356WyOXp2/HHssKvC44DdV5QKfy+vAkk/e+Lz5f4w/71Jj5HSs3EM+VyP75UasHEN6rpfnyN4+8RHwvFCgCVRCygU5D7gFapWAZJRg5WAT1SsRQ4UmwAUClYDtxJAOkYAgX7iVwpZ/CJTs2SKJka0KELFZsmicRAaGUd7ZakUgKAxlSLAdREDXCoQs2m6UPLVYAI5W5rKVEHAM1JrhbQKIAt5auwA9ATVSC11ppLqyrDSOpCwh7QAwBEymkCANKVuPn4Eu/HM3W3fqMCdNb9RBuP6yJQdOuXUSj34q1mPVMEmsVJgUQC+Opqtky10hmVKYnbT4COp4LV7AEB+IuWRJ8AkLE2P3tABSWhGofoOTdQpamMDVwBTAkkVQHdtqaq1kBZKyC7MtXuRgCedNDRgkhrTqZOC6g1ZeLQYVpj8gZ2Y+TrHkky9Saahpm6i2+jVtY5T71WIYMwUn4jQgJ2N40pVVnAcA7DqW7KKIL88NT7EeZHJm/EpxeZvAvHqwCOcCvEiMBk701HCjpPiT9c6FhEZwWdacVWqY7ZCrakc971gbRhB+uASt2qIDzqdt0hr3P+ehjp0PHq5BZFpxDw1CUn9gu5DenXAdkrraM9o7OFeqrdEmfIQZJPq1YXcjyl6AFq8+ALmccGrvaSoQ6pT+VNDXSnzpFk4yseVNXbBbZsNdTg6gIfg4vfTx6jdD0++8HJ1EBhL+vbwk7jFH1v/1FcPGqcON0s9LKETgqq13T3Qu4eSYKLh0OZ/fjA02m20wD5Llc5vz7i+793zX/H68PHxfZlfzhc7sW3//uLsL66XKL58Q8=);lineShape=1;" parent="1" vertex="1">
          <mxGeometry x="625.5651601501172" y="171.81751010830988" width="21.68041444239134" height="56.488722006093326" as="geometry" />
        </mxCell>
        <mxCell id="LZkzQo7tHymJ1fhLrl71-26" value="" style="shape=stencil(lVjbUttADP2avGpWK+3tmdL/YIZQMqWECdDL31dpxsaS49P2zZijrC5HOlrv5Ob18e5lv8vp9e10/Lr/cbh/e9zJp13Oh+fH/enwZk87ud3JzcPxtP9yOr4/31/+frk7I89P347fz7/w82KnTKxnq5x+Xd5kYv7z4vMF/3R4XuKVtDq8Uu/b+CKUh8N3Et3G10yjOzxnyhUYDKrJGxTqadugFRreIx7Ux7ZBZ6riU6SUBBhUasUbdGKQpMGUmzOQTAnEMAplf4JY0CBLo1P2MWgiBgac0uTBbKHU0BGDWnYGJU2HbvkU0lQKKYq6UvdpqokqIOsQUh91teKjyhmZPPtaogKC7kZXnyWjVwVkatYPPks9wbRWpuRd6oUEnKA9Fs6iQjEYdQY7g3PeQB0yk3qXrJQF1IE7qR8yRhZ0AmukhhkMdEKaen5p0EBa4xAwfAFZFWoSQ0ZThkn8mBwN8sK60dPCyC7Af8OHBOk0ODf80YAXquD3JbbayFQAvhEHPOP8pFUBeCLJFiVGiQYF9LKRrnIMIRVI67XBAI1jSao5FoHRCbrqgwIbx04IaniegYBGpt5Bbo2nyCXTvrJqTWhQJ+1bGDTgkul3oPZCW64PVcq8OgHUQVe9aSGg+bWKwEYm7E1NqyJkhA8D2KqMqJ2mDWpBI+RPXnXCrEL/jkfDVKbwZgUxqQbNn2dFWmgUo+liw9CzzpYsxqIWOqc1UlCD0uJea8pb0eIpcbGt80Jz3aBNrbtcLtCItDp7l0zbKzjBPA5EsqjQBGs6rcqzQYbbthmEKawWFXYpcEnxpmpBS1htcfPUGqkhtjLhG4N6tuYBg7Ykhn4z/ipIqyWxhTvSfCW4ztYVvU2MMgjalvHqC2dyh1ySK0OVBjjBFp5A70aClSdomzmERoBxNdSZGppJhvf+4Jlk+DICnkGRzd1waePpLrCVH/b4uVuv41tUZiM62L8kTSP9A480SubG/cCjPhOlEv1BGmJd2FL0H03sPq1/i/xgRodri+UffVf43+8Qf8Xbw8dHj4fD09Plm8ny//Ejib26fGCR298=);lineShape=1;" parent="1" vertex="1">
          <mxGeometry x="298.43652193350283" y="174.80824500493077" width="23.358270116103654" height="66.63553350480129" as="geometry" />
        </mxCell>
        <mxCell id="LZkzQo7tHymJ1fhLrl71-28" value="" style="shape=stencil(lVfLchtBCPwaXSkG5nl2nP9wleVIFcVyyXIefx8UZTbLyNMp31YregcaaJiN3r3uHl62G+HX8+n4dftj/3jebfTTRmT/vNue9md72uj9Ru+ejqftl9Px7fnx+vvl4WJ5efp2/H75ws8rLlLLF5Dwr78vIuX4583nq/1h/7yyD3kEJCbmOcBOqMWf0IjDHKBKsXlAoZjmgCg3J1hUbQ5IQnk4gUkAIAupB5iTClwqgUQdQBLVOgdUpigOECqxzAFNqQUHYCoF2CdKPNgzCLkV4uQjIAEBtEpanX2hAMqitdE+ROIMAc0zZB5FxJABfAQaSEHhGSB6l7RRQRxVStHXUYaFZ6SKd8lKMYBus6wVH3SKVFAMkYKOgKgAIL3dF4CxhGgNFH0hxcXJ9wFMachDJUGlwRR8P0ujhEqDe14XAGOWmJoPOgg+QbpkLSxRQ92mI0mBMspC7J9bdSeiKI+cmuCgOirj91MXqFkrsBe8EPqJM0AZAJYzcELgJcIlaRVqqh0xqLaaRqEkVGpDpUbcz6VXzWq2ZQTInfVVtwVURx8F1EDVC0A2pgGgyFgZpfTh9f5sU0pe9aq5BPKQtCe2A0wSMprPNit9HozoABTDhmv2LjUsALc7xqq8ZmtM8qm+VAsKgmIZY1BQfMt+sNhb6oG9jBJmEoIk7EaFa6MK+o3H5rEsV0CpLUS+7opJApj/N91shYj9Yb9G5twZntgPG1jmvkBM7EfBi31hmvBZBnuG+RUqw+g3MQLxamdjNTURnx/dy/9vbw//LgFP+8PheodY/z9eGuzV9cKh978B);lineShape=1;" parent="1" vertex="1">
          <mxGeometry x="358.1288575617299" y="192.95461754677683" width="39.65464740997811" height="7.105571389170564" as="geometry" />
        </mxCell>
        <mxCell id="LZkzQo7tHymJ1fhLrl71-29" value="" style="shape=stencil(lVfLctswDPwaXzEEwQd4TtP/yEyc2lM3zjhOH39fqB4qBmWtpzdbwkrAYhcQN/Lwvnt6225ieD+fjt+3v/bP591Gvmxi3L/utqf92X5t5HEjDy/H0/bb6fjx+nz5//Y0RU6/fhx/Tk/4fcFF0jiBYvhzuVASafh35esl/rB/vYpXkuzic6Yo6/GcSPwLklJo64DIxOIBlmMGAKXiUxKlGtcBUnqFMyAT13VAypSKB3Cn4SYgJ8rNAWIl0XVAkbEGa0wu64AaKSYH4EoBADSMKTFTRIBKrfpOUwF9a6nf7vGBIiC1FeIyxgPhtdoJmSmiAChtJoI05F+BUFujrJ6gQBUQZIA2MFqo4Dc0r2wroQIZGSB5oZrWE0pJF0IVqGwjNbIHFBLUZSPRq0Jqv7ImC+ERwKhvcdSdmLIQgEl9H8S0DvxvAPadNmkw6kMYG8eN+M4bvJ1ZKCCWeBzDFUvJRqIvQUhwF4Y+B2wG83od4gM2J/vn23BBjGofh/OQJ0nQCeLNrNTueNM7x/ZQAR3jMBc4i+IORa0/cAaY/VENSjo4gbH962KxZcoMR2oc7G9DE9XwvwC1ieRTsuUcAK9qt4dtXrpdby8224S+DznCATN9r3gpZYXzIi+0bY/IAGAZ5wHQ4GYwEtXTWlOv6vYnzEKuVSkDLU2Lw9NqRAtIyZZ98eKzoVZBSrn7a443x4FGp3FEfq7H2xyRek6vHHi7ZNK0SAhVTG0ouMACeJxgNjMDMFvoVrwiFG3OMH7WqpkPqG4xj3SuaO35wwapUEKW/yA5oYT58fGTCUD+i61cSnfFWn99/ncOIvfj7cfnqedlfzhcDk3X98dTkl26nLDk8S8=);lineShape=1;" parent="1" vertex="1">
          <mxGeometry x="356.08086880550195" y="201.3991286215321" width="43.71205184397047" height="10.506633043759166" as="geometry" />
        </mxCell>
        <mxCell id="LZkzQo7tHymJ1fhLrl71-32" style="edgeStyle=orthogonalEdgeStyle;rounded=0;orthogonalLoop=1;jettySize=auto;html=1;" parent="1" source="LZkzQo7tHymJ1fhLrl71-30" target="LZkzQo7tHymJ1fhLrl71-33" edge="1">
          <mxGeometry relative="1" as="geometry">
            <mxPoint x="290" y="370" as="targetPoint" />
          </mxGeometry>
        </mxCell>
        <mxCell id="LZkzQo7tHymJ1fhLrl71-30" value="" style="shape=cube;whiteSpace=wrap;html=1;boundedLbl=1;backgroundOutline=1;darkOpacity=0.05;darkOpacity2=0.1;rotation=0;" parent="1" vertex="1">
          <mxGeometry x="416.79" y="330" width="120" height="80" as="geometry" />
        </mxCell>
        <mxCell id="LZkzQo7tHymJ1fhLrl71-54" style="edgeStyle=orthogonalEdgeStyle;rounded=0;orthogonalLoop=1;jettySize=auto;html=1;entryX=1;entryY=0.5;entryDx=0;entryDy=0;" parent="1" source="LZkzQo7tHymJ1fhLrl71-33" target="LZkzQo7tHymJ1fhLrl71-53" edge="1">
          <mxGeometry relative="1" as="geometry" />
        </mxCell>
        <mxCell id="LZkzQo7tHymJ1fhLrl71-33" value="" style="shape=cube;whiteSpace=wrap;html=1;boundedLbl=1;backgroundOutline=1;darkOpacity=0.05;darkOpacity2=0.1;" parent="1" vertex="1">
          <mxGeometry x="225.41" y="330" width="120" height="80" as="geometry" />
        </mxCell>
        <mxCell id="LZkzQo7tHymJ1fhLrl71-35" style="edgeStyle=orthogonalEdgeStyle;rounded=0;orthogonalLoop=1;jettySize=auto;html=1;" parent="1" source="LZkzQo7tHymJ1fhLrl71-34" target="LZkzQo7tHymJ1fhLrl71-30" edge="1">
          <mxGeometry relative="1" as="geometry" />
        </mxCell>
        <mxCell id="LZkzQo7tHymJ1fhLrl71-5" value="" style="shape=stencil(lVjZbhsxDPwavxISdfI5Tf8jQJzGaBoHjnv9fbk15C4p7xR526yXETkzvLRLd+/PD2/7HYf38+n4df/z8Hh+3qVPO+bD6/P+dDjr0y7d79Ld0/G0/3I6fn99vPz99rB8uTx9O/5Y/sOvi13v1MJixeH35U0sVPvfN58vBi+H17VBpNitQaLC2waNKURrwMTAoAYKk0slbhuUSKUZA45U07ZBrhSzNRBqwKWcSaoxSJVygS5lG3TSoAMIOlF0MRTiCmBN1MWiVKkCl7rS5IgLECVhkuKZbgIMig9aeYggBjVI0fPQMzCoVKxLOVAH0hChYFEqTBGgFMOkviLjzdYRYoOodRx626BTSMZAuSyICKXaqq8rc+CE3oitvnsdAr4tpk7JwiSRegNy7R7XhXwQQ6nULErSSADVmnLF8qBAJ8BD0ipgUVpxeZtr9YD9EQ3AVEaRuH7fIXHJ19aFeiQ+kuYxCoCFMPmDa7fCYRGSPKS49b2tGFoSEAXqj/NfdQrw5IHGVaZCDPzXPLB4avdKoGwX6jbRNDGQqic96PcC/JEpLztVoOkYR9NYBdyAQ9opi2M4wq4Qp5q9VHFs4PMyw9qiMXRnUIlhRaXkVNdGat+uXpRdaelQddqJ56wEoGZKxX/P4HueClGDvT+OnF0BFGFW8swAzDLXoJRipOpA2fkToT/TNLWIFBVePxBqFhSgoEJxykrYnIjnLAb+f/T7eP15FQACNIUh+HXEqJfxENjKJUYQTZrrBY5eNfppUMe9hEpd8fNma3immPK+hZF4W/MmW5d0sEco6VAjlofcSYBLTbxSFWh0QpsmL6USjWrLnGVPiEIZaFVTxRU7LR9ozNEYXM9Xl1C26azoymO6trnb0igDxNXMLGidmvIhq1iASwtNjoc2OuPtBBIvbzVAg4suT24SyQoDgFWbSLMGurBVoNZlerTS0D6BFgVFnd061eDuoqgnpyWG045uqW5h076D+mDwyohwz246/NktAY/LukO47OFx4Nba4hpPhkLVtudkVGCuLXOH9b/Ckqdtm9nhieYQufJ5ralj/tzc6/wCAhutTIkWrzvMlkGarlJQokmdNKekA03I1Jxjhs1ZSa7ukqDARNNhJbA3EESb5k2eDFDR/vCV1v8N9OHfDdrT4eXlcgG3/t3fuOmry21duv8D);lineShape=1;" parent="1" vertex="1">
          <mxGeometry x="467.66" y="360.95" width="35.08" height="38.35" as="geometry" />
        </mxCell>
        <mxCell id="LZkzQo7tHymJ1fhLrl71-41" value="" style="shape=stencil(lVjZbhsxDPwavxISdfI5Tf8jQJzGaBoHjnv9fbk15C4p7xR526yXETkzvLRLd+/PD2/7HYf38+n4df/z8Hh+3qVPO+bD6/P+dDjr0y7d79Ld0/G0/3I6fn99vPz99rB8uTx9O/5Y/sOvi13v1MJixeH35U0sVPvfN58vBi+H17VBpNitQaLC2waNKURrwMTAoAYKk0slbhuUSKUZA45U07ZBrhSzNRBqwKWcSaoxSJVygS5lG3TSoAMIOlF0MRTiCmBN1MWiVKkCl7rS5IgLECVhkuKZbgIMig9aeYggBjVI0fPQMzCoVKxLOVAH0hChYFEqTBGgFMOkviLjzdYRYoOodRx626BTSMZAuSyICKXaqq8rc+CE3oitvnsdAr4tpk7JwiSRegNy7R7XhXwQQ6nULErSSADVmnLF8qBAJ8BD0ipgUVpxeZtr9YD9EQ3AVEaRuH7fIXHJ19aFeiQ+kuYxCoCFMPmDa7fCYRGSPKS49b2tGFoSEAXqj/NfdQrw5IHGVaZCDPzXPLB4avdKoGwX6jbRNDGQqic96PcC/JEpLztVoOkYR9NYBdyAQ9opi2M4wq4Qp5q9VHFs4PMyw9qiMXRnUIlhRaXkVNdGat+uXpRdaelQddqJ56wEoGZKxX/P4HueClGDvT+OnF0BFGFW8swAzDLXoJRipOpA2fkToT/TNLWIFBVePxBqFhSgoEJxykrYnIjnLAb+f/T7eP15FQACNIUh+HXEqJfxENjKJUYQTZrrBY5eNfppUMe9hEpd8fNma3immPK+hZF4W/MmW5d0sEco6VAjlofcSYBLTbxSFWh0QpsmL6USjWrLnGVPiEIZaFVTxRU7LR9ozNEYXM9Xl1C26azoymO6trnb0igDxNXMLGidmvIhq1iASwtNjoc2OuPtBBIvbzVAg4suT24SyQoDgFWbSLMGurBVoNZlerTS0D6BFgVFnd061eDuoqgnpyWG045uqW5h076D+mDwyohwz246/NktAY/LukO47OFx4Nba4hpPhkLVtudkVGCuLXOH9b/Ckqdtm9nhieYQufJ5ralj/tzc6/wCAhutTIkWrzvMlkGarlJQokmdNKekA03I1Jxjhs1ZSa7ukqDARNNhJbA3EESb5k2eDFDR/vCV1v8N9OHfDdrT4eXlcgG3/t3fuOmry21duv8D);lineShape=1;" parent="1" vertex="1">
          <mxGeometry x="174.92460768467555" y="203.0873729209933" width="31.701724086666218" height="38.35158307974427" as="geometry" />
        </mxCell>
        <mxCell id="LZkzQo7tHymJ1fhLrl71-44" value="" style="group" parent="1" vertex="1" connectable="0">
          <mxGeometry x="270" y="360" width="30" height="40.24" as="geometry" />
        </mxCell>
        <mxCell id="LZkzQo7tHymJ1fhLrl71-42" value="" style="shape=stencil(lVfZbhsxDPyafSVEUudzmv5HgDi1UdcOHPf6+9I1tFnR3gny5mw4Eo/hkJr04W379LqZJLydT8fvm9+75/N20i+TyO6w3Zx2Z/s16eOkDy/H0+bb6fjz8Hz9+/XpYnn59eP463LCnyuuJgr1gpLw9/qlUeX/H75e7fe7w8K+KFUZ7CtlXbdPmRIP9hyo1nVAjJTDCIgQoIk0DwBh4rQOMI/LGIIGYnCDWAw6AhJMkkRqo0tRiEGWDBDHoGOlJhCQygCwRCu6IZGMMWSlUmDQMsZQApUGAKUncQYUEnRD6Q7MVBJqqA6VouOelRJVOnaPZ3IXUpRW6efNgNprfxfA7eaGRhEBLK3iAajSLP28JSCvAyrV4O1TBB3qu8FCLgH0m29oyylKkXhqt0wM/BdKzj52D1f8cYLUlBTQzgrgzhcSQKJ24z9TBCxlvVFUhs1vlKjFA5BHEkiTB1REayUuPuaCOs2mQvRFCFhefOMkioB1t3rU5jSsxZCcSxXzyObMKGDWCAxu4EIxeQCSeat0HpufQ6AAeqf5uWA3FJDWTPnGPoBCx060RW82xCTK0RcBTXPpM2ZRZQYzQTuPF71ZobZ8zj75/FTLD4jXSDfGW7WrwYp9GPvGRloBjIhe3AvjqUx1jDfPJ9xnnB+ANvUzsA/eH1srKujKmb2zPeNp1kVhXoxsL4FazWO8tgM0kE+Lbsy/4D2K2W9qJq5oeHD1yshYSm3zcwM/9nm4tv+6kgWKQISqaXt09lBRmMrYAsY40JGm4yrOHsVrguBk1+Y5UF0TZRnzo/3DffvW0/GeTzT7Fgo798BHF7gxkPv0XLMPbu+F64QpbB4pZxkAo9UUM/sHVwAtedlm3P5BCcUbvD94v6ylK8LCHpz/2Qfjx/b24/11+rLb76+P2+X//WvWPl1fwvr4Dw==);lineShape=1;" parent="LZkzQo7tHymJ1fhLrl71-44" vertex="1">
          <mxGeometry x="13.847073522927985" width="16.152926477072015" height="40.24" as="geometry" />
        </mxCell>
        <mxCell id="LZkzQo7tHymJ1fhLrl71-43" value="" style="shape=stencil(lVfLctswDPwaXTHgAyR4TtP/yEyc2lPXzjhOH39fuC7VgJbW05ssYykAiwXAKT28bZ9eN1Pkt/Pp+HXzY/d83k7p0xTj7rDdnHZne5rS45QeXo6nzZfT8f3wfP39+nSxvDx9O36/nPDzissk7QKK/OvvC6Uc/7z5fLXf7w4f7EOilBwgVcq6DoiBOHoAEzMANOLiAFEol3WAOZD8F2LsUS0CciEWDwj9iEWAZCrsAKFRAzGUSOpjCJYl4FJlqsEDjJkAAI1UPSBQk3VAY4qDS93HZXvLoU8Spq3lm5ApggBaoebthRLyR6l4lkPslbUMaFSqZ5khB4HnCGeEZRkg7BPiSUiNIvLJxOWTmisJAhSqXm6SqCHAjaClUs2Q5+jTJNqjWisk9qUqBTKnSjzEYHIDpaGFxJdGTr1YlgHSQ5x5EOIKAeWmx6CgzaWh7YUCi0nrWH3amVy2b6PcEgVEW6Dqzzd9I9YyBR7sM8iQFV7iwZ+C7JWCl2frJK5JJ/k6DXeUYB13kLNpAwN0iKBQQCnS3tPnssvUAGfNBo/nTGKfLMsAGavIpFORSwbI/wNQ7g2rA4qNUwCoNjW8mu2NghhKIh0AmTLIkggFH3QtfditjefsxVkrNaCFpCMPVWFp2AYyyN/yVkCWrDbZN3prakg+2hvcrAaFbXtmdVYD43Erfc7MH5gbyHLIY4e04kU7UqQ8BJApgvPDuINZQ0MkM4kvCrXzQRXxSIBRjPrjzSi/lDXIJ4/trgjsX9yXrVmYFi9aLnonme1tXwLxWvcfpjLDEXizod7Z4+/v/fbw79Lwstvvr3eOj/+Plwx7db2gpMff);lineShape=1;" parent="LZkzQo7tHymJ1fhLrl71-44" vertex="1">
          <mxGeometry y="23.129096753700406" width="27.91086957783702" height="6.461444637307971" as="geometry" />
        </mxCell>
        <mxCell id="LZkzQo7tHymJ1fhLrl71-45" value="" style="group" parent="1" vertex="1" connectable="0">
          <mxGeometry x="594.04" y="196.51999999999998" width="23.92" height="23.22" as="geometry" />
        </mxCell>
        <mxCell id="LZkzQo7tHymJ1fhLrl71-46" value="" style="shape=stencil(lVbLUuNADPwaX1XSvOfMwn9QRdi4CAkVArv8PfK6xskocVN7cxy1pVbrNfi79+3j22Zw/H46Hl42f8an03bwvwbnxv12cxxP+jT4+8HfPR+Om9/Hw8f+af799jhZTk+vh8/pC39nnCeJE8jx1/yiCCX/783DbL8b9xf2UiiHDpASebcOcJUkdYAYm8+bgMAktQMET4XXAZHJ+w7gHTngIQUqPWnJFGUdUNRDz0HTBjgXT6FPkhCDgEom7u2ZGIhQmXI19lKAfSBXTTyhAvvcPnfmW0B+arVVlKgCxYSVH/cBcUvZmodkMhqIEwAUErEae5SjSLHXeBIBiFa1yHIPEFinpVA0AEcByFy0Tq89AA7au9FbDg4Uai5Unc1SAkpnTSJbHTzgkNNVr2nxopCWABogw3GRa2vdZVwQo9505G1vooFXYiv9c685UKlF44nGnkFVVB0l2dhX1PvJKuCoos4pNp8RVql2mhGsQr6TvZktrpXtWkBmg0iCJaSMjcKiIaHevwlA81eo9hy8qgJIp9K+txSdbhAAiMtAXFTQiQY4hEip95CXJXQT4IMlrawE6DDlpA9J85YBBx0NYgAFjlQdDakfqVosaO9o5bAZR/xD97Tb48IDmpDJ1t60ugDnQKFPqq7Ggq4dCtnmFMUvdvHrOMggfr7STNo4WLE3e1aXUAIK6BY252Bqe3Ql/tjnX0+fDOz/99z82V4fzrft87jbzafx5f/2FtZX8x3t778B);lineShape=1;" parent="LZkzQo7tHymJ1fhLrl71-45" vertex="1">
          <mxGeometry y="1.3150915017059859" width="17.545249488845407" height="21.90490849829401" as="geometry" />
        </mxCell>
        <mxCell id="LZkzQo7tHymJ1fhLrl71-47" value="" style="shape=stencil(lVbbcttACP0avTK7wF54TtP/yEyc2tPUzjhOL39fVHUdQyUyfZNWHAGHA8tEd6/7h5fdhOn1cj593f04PF72E32aEA/H/e58uOjTRPcT3T2dzrsv59Pb8XF5f3mYLeenb6fv8x9+LrjMIHVGYfq1nCBg+XPwebF/Phxv7PVzIWMvkGTbnhgIjX1uQLwN4A6YbEACLW8DagKxANYY2zagEVAzgELQA4AgsPVQG/SAJClQLaktAUceOmQHYODIg0AtFiBANQSITbpzSKtc63oF6C8wADQPkA9yYMgOoLRGHhJUB5Bxsgro1YtbAT1gqas0nIcOFLDUE5Ctg9b+r37XxfdPpTWrKKSmtFoPvUALGkgBmS0gDcFvhcTZaqkAUZh0sx5aHj63aO1WfFW7PPLQgG0dao3FlwFtDtqiUQ4qPtdAVYAjQBufr0kjSCA+lRp2C2jD5yogpwTJzpmOcdYCxWbdY17nBrOFEBry2ppkaEstNR592U/jmYcAMEdsc7jhYR3BUNi7SFGT/i+gZl/rnsMxoJeWG2Uq8EhNVIZ2rndQgRSUGnWWWjUxjR5ZV1OGagtBGA5LBrQRodY+GBt6ydqLHQlyUDYdEVZ6mMawXbVPK4sDhvaueTKB9MjeKTvr9RLkmyG5/h+b0AY9Lny9boM2YP93pTcgs0KyZF6XoPUOGOp9N4+6fmaCvH1UWoQuzj5Kdl46nRbCGfHxkqoP7xvu0+H5eVmQb7/7jViPlm2a7n8D);lineShape=1;" parent="LZkzQo7tHymJ1fhLrl71-45" vertex="1">
          <mxGeometry x="0.7285551492335848" width="23.191444850766416" height="19.534677334154143" as="geometry" />
        </mxCell>
        <mxCell id="LZkzQo7tHymJ1fhLrl71-50" value="" style="shape=stencil(lVbLbhsxDPyavRISqQd1TtP/CBCnXtS1A8d9/X3pbrU15e4Uua1ljaghZyhO8vC2f3rdTRzeLufT5933+fmyn+TDxDwf97vzfLGvSR4neXg5nXefzqevx+fl9+vTdef168vp2/WEHwsuCuV0RXH4uawEavp74eOy/zAfb/Zzpdjc/hgp8DYgWQD1AKUCACVQzg7AFiFtA7RQYg+wI+I2oAVKOkYoAQAS8RChUBUAqMSeg2SSCgBtBKRCBXCIIVAIDpHtDBwiiQNUpoBJ/LlBB6j00mylqXpAY1jqZoX1rJuSANZaKfgIN3n4N0JGhNHKgHW1NBUPiBQB62pS8CQ04gi5n9cBpVEBlauJ1Fcul76yFWEApEQCLFS1O2zVq0ALGUX2EThTAhw0U6h3rgaNRhtFfyVzdUX6lpEDJ+zq0nOykmaKBQB01HcyfSNDNFLfLHOC3dUA1WepVFIUwfzitWT6bcjUmarvfZboBqRhFhZfacubonasvdOtAIuALGoAfQ8g31tUiQFAzF++DuZpBY3JtNnSmNYE0npXhqKwfZtBPYOSqQDpSW8Q6/4Ayxx7Am+Eh1pM6NFXZdsLBu4Txq5qKY4goXePlQT4gNp9hvbCfYzY4Ks+/zH39rGVz+Fpg5o203j9pP5wbaiBfbXwABPDWC38pr13Zvv/fvv4OyC+zIfDMl/e/j8OlLa0DKPy+As=);lineShape=1;" parent="1" vertex="1">
          <mxGeometry x="68.82333438051387" y="201.8083527162754" width="19.892604951051908" height="6.298972486083244" as="geometry" />
        </mxCell>
        <mxCell id="LZkzQo7tHymJ1fhLrl71-52" value="" style="group" parent="1" vertex="1" connectable="0">
          <mxGeometry x="19.814169616957997" y="199.35727893238504" width="31.821876607316767" height="55.167195440723276" as="geometry" />
        </mxCell>
        <mxCell id="LZkzQo7tHymJ1fhLrl71-48" value="" style="shape=stencil(lVbZctswDPwavWIIgudzmv5HZuLUnrp2xnF6/H2haiQLiLWdvOnAEgR2l+AgD2/7p9fdEMPb9XL+vvt1eL7uB/kyxHg47XeXw1WfBnkc5OHlfNl9u5zfT8/T++vTGDk+/Tj/HFf4PeFioJhHVAx/pi+FSvj34esUfzyc1vFCnEw8Z+plGyBMuRqAZhDeBqRMYjNIh4DCJLaELNRBDaVTthnGJUCGJhSbAdRIPW8DeqBmi27aZ7ClniixBTClBACVJFiAzI2+D+gUxQKUBwDgECi4FNo4VPWHvvZItcEiWreATBUQob/Hf2tAoyAAwNRsX8dNRkD1st6i71sf7iMSxeJTJLAnlUK3fR37AJiobVbnqk2pA0Chmj0RqGoFiBW4Uh1RhuqPDVUTg6KrruccIVB+LXqq1RGCeFDpWDFpoxlYSEss0QMCUp/MPVkBOmhrL7MQFoAaApm0UXWWyzMzW5ZrjrhGCR8DzW5JLVJRDY2yk3fCpi7zSbeSt6CjTOaurwyEtNT6Bz90OIPaYpcVoCJpfBZQdGq687tQA4AcPQ81UQbyTomKNVCpFABxUjxxeTmf74/25ie1bjIAplmo2hqkwimnNVtl3G4fd+OD9xuH2R8b8X5gzQ7fCHcy0o4B2TGx3U2CAzd6RWj1oNY023aplRKQtOrNkhvgROgUqgtHM43ZT3J8MqoSenbxaN7wMixu1SLxc6XeXDPRDY+7n2fqHkDtp2/B/43Xh9uV++VwPE439vV/f0XXT9P1Xh7/Ag==);lineShape=1;" parent="LZkzQo7tHymJ1fhLrl71-52" vertex="1">
          <mxGeometry y="1.4718062480013714" width="21.288455798652535" height="25.09194333318419" as="geometry" />
        </mxCell>
        <mxCell id="LZkzQo7tHymJ1fhLrl71-49" value="" style="shape=stencil(lVfLctswDPwaXTEkwOc5Tf8jM3FqT1074zh9/H2haqiIkLSd3GR5VyRAYBcc5OHt+PR6GNi93W/X74dfp+f7cZAvA/PpcjzcTnd9GuRxkIeX6+3w7XZ9vzxPv1+fRuT49OP6c/zC74lXK6U8stj9md4I1fTvxdcJfz5dlvhIuXR4/YAHeKbsOrwPFMs+oRQqtSOwIwd2VAKF1BMSedkn5EKpX0GEXAYET6mPOTiqbp+QpIU4EyoF3ifEQKnPUizkwZZCJOmDTolq2CdIIu4JOZIHB8eFMneEwu0T2wReEQo8B88UTCllWEveU+mzVAtFcA7eUQw9oRKDLGntrfAZxJyo9M3jnRYr2FHYWKCCHHFrxgU+grrwFMRmqMZ9vKPgLR6d2Rzd4sgYxOuIY49PsIh8W33Gx7bDnfxEk59AGew/kGSLF9TJJMXiPRIjkrr6PuoB19p8GUCFPRDjKkOIwKuQNShQEn6dUz1jvIIzQRdi3MeuVwqtagfkUcVz1TUJ4PNG26MuiBT9Cg8illWGatO+nao2lqZ4DzzQWb/RhCL7mA1ycWIR481+ElSVz+LHiuhrrmiKUQmp2fSEXKGdaWMaw8xMBRyxxFaSs2GGNplsK4VYbY8Rmn70VqsD1ka1+GpGrwL9L6lj90GLgzFkZxtHS7eAwtOZwPVZ8pkKmqVqC3EmcBOobYHUUavXr4zxuVXaHAI0WJ05jON4qHZlHgga3rUhY1uKXFPbD7yAjFatCjZ4NHZVoRANHsWrdlHtftAsq50bbLzIAFVJssWjklOlytXkn5G0V+tnHvbxqMxm2m9iv2Owq5FF4ATy6QvRf/H68HH7ejmdz9Plbfm/va3pq+mmJ49/AQ==);lineShape=1;" parent="LZkzQo7tHymJ1fhLrl71-52" vertex="1">
          <mxGeometry x="6.178482768332628" width="25.64339383898414" height="55.167195440723276" as="geometry" />
        </mxCell>
        <mxCell id="LZkzQo7tHymJ1fhLrl71-53" value="" style="ellipse;whiteSpace=wrap;html=1;aspect=fixed;" parent="1" vertex="1">
          <mxGeometry x="95.15999999999997" y="347.98" width="44.04" height="44.04" as="geometry" />
        </mxCell>
        <mxCell id="LZkzQo7tHymJ1fhLrl71-56" value="" style="shape=stencil(lVbLctswDPwaXTEkwQd4TpP/yEycWBPXzjhO2vx9oKqUDVreTm8ShRWxwC7Bge/et49vmyG499Px8Lr5NT6dtgP/GEIY99vNcTzp08D3A989H46bl+PhY/80v789TpHT08/D5/SH3zMuZnJ5QgX3Na8UqvHPwsMcvxv3F/FJqEQTHwIFuQ0ohVw1gBgpgR2q7sA2o2VlFeCdI+cMQphqgVvEDlDJI0DsSVQmcbcBUhrHBVCIMyhTpegtQFcqADhKpQcg0tm3xi4AXNcUKQYLSFTDbUAUko6DJ0GARFlsHzIJ4KAAtqTFUwJViqpm2+mSKYGUEpOzpIvqG3Q6O/JWGrmSQ30QyskCCkXsoMQ9IAGAJBLpU2Ik70ASe9J/k1wHlL5xk81BSpM2O8fhsiog2CoJrpJqU+wOygo5Ti1fbVlrJgbSmDK+MlBFnub+ELg4qta1EfuzT+vAyKOZii2TtsZ5AHBXpmZikJIOiA4gAtW3DgAeDWoIS1pZZXTgxyadBuBECcg1ULIzLrgmx9V41/Jd+qZ6B0W9mj+aoQcEXDsVz7qgDPzJraXnGR3B73P7ukxcyoCtbi6WboCa85m8lbWjArIPOgRyF49MoOxK6ONRdVTA0sWjQcgqR9/xzcDGMfTtSm1G3DLAf12p/h2vD+f72/O4283Xv8vv/X1Pl+a7It9/Aw==);lineShape=1;" parent="1" vertex="1">
          <mxGeometry x="107.84497133137097" y="358.85555861109026" width="8.864884629952599" height="14.87413018227494" as="geometry" />
        </mxCell>
        <mxCell id="LZkzQo7tHymJ1fhLrl71-57" value="" style="shape=stencil(lVfbctpQDPwav2p07tJzmv5HZkIKUwoZQnr5+8p17XJkvJ28GaNFt11JDOnhbf/0uhsiv10v56+7H4fn635In4YYD6f97nK42tOQHof08HK+7L5czu+n5+nz69NoOT59O38ff+HnhNNGOY2oyL+mNyFRLn/efJ4Ax8PpFsAUtQcoqW4DJHoPUUjiNqAVar2HJJTCNqAKMXeALFRASMUirh2gCMUEAJFK7gC1Us3bgJxI+qRbpSbbAKtJCB1ACyUGgEytT9paKaBKkeciLgCdO3MXEArl3kNgnit9H8GUdeUCkKkS6yoHYB+pllWRgD1TcfYR9pk9kURgTQNxzyOxmgFaJKp9C0ZxAKI2Sn19xNQH8g2RuHfQhLQBQCUVD2gAYCn//XoBKFVE7ELqahrmKmwpQWMPyJRQUa3LDtCghxHQq1mtkYh24ueFWkhghI1JO0CbqbJVVnFMVSy15qlnAEVqjiutKTUQki0G50AgV43bzr5SRNRbxZNgTdfaXKb4lvb7CSx1bvvWbHHatEWIeEqVP2IfxGvTdkhEE3611kqBizMZ63pe50YNcCJnH1JSSFPbg6FXf1RY1MpU3XmhcJe3RYkLLeBEtXHl2pYogJRtgNY+AxtooKbW1NDHw/PevW9f/PTiebHft7cFw84e6d4mVfXxJKAyG1RRXL6IdCZatzIjPgdlFu3COWJQ//Eg6GVvnAaMuzk5loUzn1ZbDsSdOdhevGiCMQIw7uMX8/8B9vDvQH85HI/TfX/7vT/o7dX0ZyA9/gY=);lineShape=1;" parent="1" vertex="1">
          <mxGeometry x="107.64231006505861" y="358.7746291190497" width="18.584440512121546" height="26.84661995406418" as="geometry" />
        </mxCell>
        <mxCell id="LZkzQo7tHymJ1fhLrl71-59" value="" style="group" parent="1" vertex="1" connectable="0">
          <mxGeometry x="620" y="347.98" width="44.039999999999964" height="44.04000000000002" as="geometry" />
        </mxCell>
        <mxCell id="LZkzQo7tHymJ1fhLrl71-34" value="" style="ellipse;whiteSpace=wrap;html=1;aspect=fixed;" parent="LZkzQo7tHymJ1fhLrl71-59" vertex="1">
          <mxGeometry width="44.04" height="44.04" as="geometry" />
        </mxCell>
        <mxCell id="LZkzQo7tHymJ1fhLrl71-40" value="" style="group" parent="LZkzQo7tHymJ1fhLrl71-59" vertex="1" connectable="0">
          <mxGeometry x="10.059999999999945" y="10.409999999999968" width="23.92" height="23.22" as="geometry" />
        </mxCell>
        <mxCell id="LZkzQo7tHymJ1fhLrl71-19" value="" style="shape=stencil(lVbLUuNADPwaX1XSvOfMwn9QRdi4CAkVArv8PfK6xskocVN7cxy1pVbrNfi79+3j22Zw/H46Hl42f8an03bwvwbnxv12cxxP+jT4+8HfPR+Om9/Hw8f+af799jhZTk+vh8/pC39nnCeJE8jx1/yiCCX/783DbL8b9xf2UiiHDpASebcOcJUkdYAYm8+bgMAktQMET4XXAZHJ+w7gHTngIQUqPWnJFGUdUNRDz0HTBjgXT6FPkhCDgEom7u2ZGIhQmXI19lKAfSBXTTyhAvvcPnfmW0B+arVVlKgCxYSVH/cBcUvZmodkMhqIEwAUErEae5SjSLHXeBIBiFa1yHIPEFinpVA0AEcByFy0Tq89AA7au9FbDg4Uai5Unc1SAkpnTSJbHTzgkNNVr2nxopCWABogw3GRa2vdZVwQo9505G1vooFXYiv9c685UKlF44nGnkFVVB0l2dhX1PvJKuCoos4pNp8RVql2mhGsQr6TvZktrpXtWkBmg0iCJaSMjcKiIaHevwlA81eo9hy8qgJIp9K+txSdbhAAiMtAXFTQiQY4hEip95CXJXQT4IMlrawE6DDlpA9J85YBBx0NYgAFjlQdDakfqVosaO9o5bAZR/xD97Tb48IDmpDJ1t60ugDnQKFPqq7Ggq4dCtnmFMUvdvHrOMggfr7STNo4WLE3e1aXUAIK6BY252Bqe3Ql/tjnX0+fDOz/99z82V4fzrft87jbzafx5f/2FtZX8x3t778B);lineShape=1;" parent="LZkzQo7tHymJ1fhLrl71-40" vertex="1">
          <mxGeometry y="1.3150915017059859" width="17.545249488845407" height="21.90490849829401" as="geometry" />
        </mxCell>
        <mxCell id="LZkzQo7tHymJ1fhLrl71-21" value="" style="shape=stencil(lVbbcttACP0avTK7wF54TtP/yEyc2tPUzjhOL39fVHUdQyUyfZNWHAGHA8tEd6/7h5fdhOn1cj593f04PF72E32aEA/H/e58uOjTRPcT3T2dzrsv59Pb8XF5f3mYLeenb6fv8x9+LrjMIHVGYfq1nCBg+XPwebF/Phxv7PVzIWMvkGTbnhgIjX1uQLwN4A6YbEACLW8DagKxANYY2zagEVAzgELQA4AgsPVQG/SAJClQLaktAUceOmQHYODIg0AtFiBANQSITbpzSKtc63oF6C8wADQPkA9yYMgOoLRGHhJUB5Bxsgro1YtbAT1gqas0nIcOFLDUE5Ctg9b+r37XxfdPpTWrKKSmtFoPvUALGkgBmS0gDcFvhcTZaqkAUZh0sx5aHj63aO1WfFW7PPLQgG0dao3FlwFtDtqiUQ4qPtdAVYAjQBufr0kjSCA+lRp2C2jD5yogpwTJzpmOcdYCxWbdY17nBrOFEBry2ppkaEstNR592U/jmYcAMEdsc7jhYR3BUNi7SFGT/i+gZl/rnsMxoJeWG2Uq8EhNVIZ2rndQgRSUGnWWWjUxjR5ZV1OGagtBGA5LBrQRodY+GBt6ydqLHQlyUDYdEVZ6mMawXbVPK4sDhvaueTKB9MjeKTvr9RLkmyG5/h+b0AY9Lny9boM2YP93pTcgs0KyZF6XoPUOGOp9N4+6fmaCvH1UWoQuzj5Kdl46nRbCGfHxkqoP7xvu0+H5eVmQb7/7jViPlm2a7n8D);lineShape=1;" parent="LZkzQo7tHymJ1fhLrl71-40" vertex="1">
          <mxGeometry x="0.7285551492335848" width="23.191444850766416" height="19.534677334154143" as="geometry" />
        </mxCell>
        <mxCell id="PpzcbYf8oN6JO8kaj1W--2" value="" style="shape=stencil(lVbLjtswDPwaXwmJ1PO83f7HApttjKbJIpu+/r50DbmmlAzQm2NxInNmONIkTx/Hl/fDxO7jdr18PfycX2/HST5NzPP5eLjON32a5HmSp7fL9fDlevl+fl1/v78slcvTt8uP5R9+rbhEMSwgdr/XFxJI6t83n9f603ze1ftEIRkAewoAILosBlCI/eP6UNtyq3fk3OP6lMkVU+8pp8f1pVK238NCCQDqtrwBtIMMAImqs5wmkggAtW8haFMA4N3GSUNEpQ1vEaMBZE8JNZEpZyubkGMACFQsTZXJA+GqJ88WkKki5ZRX69UdD/cR3Kyw3wKYNdfW474JwGtOrcc9TWgHHS/uhchoB6FilVOpReAOXdPqJo8AA6/q1wBGtDjy1hs6EQK8UULP0jJzBQBKa3EDMBROZQo2NTTZ0CfVSNXqIIIBpcXcRqsQo9yog3ARD8QA0GyLqOlC0dKq/g0BN22V1jREab/QagEabgEprcJ1E1dbkDy0BvcAxNICkAEA3JqG6CueIvgklWnMygBGNPh+HjJTBPbm0EZ++yRHCfTgA6VOB5xLXpftkaL57FHeU5K+HjkjDyowFXSsUxmcF0G9/lt3/ASYGL73XS6QUUdi+VnOQ0DocOCmQAxs6ogtPzFRQvcqcrZfvQchk3Jz5D6NkEf7Y0dKu3Tcn5p798L/rTf96sO/S+jbfDqtd9j9en9p1VfrhVee/wA=);lineShape=1;" vertex="1" parent="1">
          <mxGeometry x="66.79471915278987" y="212.53418487366628" width="20.819483411994156" height="7.058705813733468" as="geometry" />
        </mxCell>
        <mxCell id="PpzcbYf8oN6JO8kaj1W--3" value="" style="shape=stencil(lVfbbtswDP2avBKiKFHSc9f9R4GmS7CsKdJ0l78fDUNeRMdn6Jvj6Ii3w0N6Jw/vh6e3/S6G9+vl/H3/6/h8Pezkyy7G4+thfzle7Wknjzt5eDlf9t8u54/X5/n329N0cnr6cf453fB7xnEjThMqhj/zmxj6m68z4HR8vQUk4uoBjbcBkSmEAcCBkm4DJJCOFrhSABYSk8TRpUIatgE5UeEBIA0CtFIZLWShXLcB1UIsA0ATSd4GNOlJ7ICiVAUACrGMABxDaxTHSlchbqDSIfjK1UIxQhMymmhMEZTagpAxiJaooSBW7LMrCspr6B4vgEYZkKlmqurouuThPoIpqzfBZRtQzOXig2BgoSSq1acpgEIUoTiyacoD6OoSqY1pqkoM8mouhTwCIkUUg/qOKNZUgH5G5+YIrhRRz5lLY5bMyQayVOvKpSXR98kUSZN3CYll006Em6AzoEarXvuMXQ3JQOv9sgAWAm8BnJRVuwLFUP2EMK0qyEJeqYDCCWEioWMM5mQAFkyGnOBPaUDUMHpnD8iIfHUFKJBLnwYod3m/aSABgLSyoA1OCFGSUZeyduG5P6nF1yElUuASW1pHCyJUQVrtujGEiBtuNYDYqAIiqF6UbDMA13PuM7mfD32o3j9vJS3uPJoM9rebDHjziSuaMiXgf8x9L1ryj/3RXs6lwLD1pzXKKWofv/fPr6UCdpld5/hjjArYIXYAW6sQpXOfMQtAcQlWe5gtnzBm9py2lTohEn164/4/wB7+Lfgvx9Np/j64/d9/ENir+WNCHv8C);lineShape=1;" vertex="1" parent="1">
          <mxGeometry x="250.56220261082706" y="201.82961776310287" width="19.93796687302131" height="21.407724393744502" as="geometry" />
        </mxCell>
      </root>
    </mxGraphModel>
  </diagram>
</mxfile>
